<?xml version="1.0" encoding="UTF-8"?>
<svg xmlns="http://www.w3.org/2000/svg" version="1.1" viewBox="0 0 50 50">
  <defs>
    <style>
      .cls-1 {
        fill: #fff;
      }
    </style>
  </defs>
  <!-- Generator: Adobe Illustrator 28.6.0, SVG Export Plug-In . SVG Version: 1.2.0 Build 709)  -->
  <g>
    <g id="Layer_1">
      <g>
        <path class="cls-1" d="M25,0C11.2,0,0,11.2,0,25s11.2,25,25,25,25-11.2,25-25S38.8,0,25,0ZM25,45c-11,0-20-9-20-20S14,5,25,5s20,9,20,20-9,20-20,20Z"/>
        <path class="cls-1" d="M30.5,13.4h-11c-3.9,0-7,3.1-7,7s3.1,7,7,7h11c3.9,0,7-3.1,7-7s-3.1-7-7-7ZM30.5,22.4h-11c-1.1,0-2-.9-2-2s.9-2,2-2h11c1.1,0,2,.9,2,2s-.9,2-2,2Z"/>
        <circle class="cls-1" cx="17.5" cy="34.9" r="2.5"/>
        <circle class="cls-1" cx="32.5" cy="34.9" r="2.5"/>
      </g>
    </g>
  </g>
</svg>