<?xml version="1.0" encoding="UTF-8"?>
<svg id="Layer_1" xmlns="http://www.w3.org/2000/svg" version="1.1" viewBox="0 0 240.8 16">
  <!-- Generator: Adobe Illustrator 29.0.1, SVG Export Plug-In . SVG Version: 2.1.0 Build 192)  -->
  <defs>
    <style>
      .st0 {
        fill: #222;
      }
    </style>
  </defs>
  <path class="st0" d="M0,15.8V.2h2.1v15.6H0Z"/>
  <path class="st0" d="M8,.2l4.8,12.4h.2V.2h2v15.6h-3L7.2,3.4h-.2v12.4h-2V.2h3Z"/>
  <path class="st0" d="M18,.2h5c1.6,0,2.9.5,3.8,1.4.9.9,1.4,2.4,1.4,4.2v4.3c0,1.9-.5,3.3-1.4,4.2s-2.2,1.4-3.8,1.4h-5s0-15.5,0-15.5ZM20.1,13.8h2.9c1.1,0,1.9-.3,2.4-.8s.7-1.5.7-2.9v-4.3c0-1.4-.2-2.3-.7-2.9-.5-.5-1.3-.8-2.4-.8h-2.9s0,11.7,0,11.7Z"/>
  <path class="st0" d="M30.4.2h2.1v10.5c0,1.2.2,2.1.7,2.6s1.2.8,2.3.8h0c1,0,1.8-.3,2.2-.8.5-.5.7-1.4.7-2.6V.2h2.1v10.5c0,1.7-.4,3.1-1.3,4-.9.9-2.1,1.3-3.7,1.3h0c-1.6,0-2.8-.4-3.7-1.3-.9-.9-1.3-2.2-1.3-4V.2h0Z"/>
  <path class="st0" d="M44.3,11c0,1.2.3,2,.8,2.4.5.5,1.4.7,2.5.7h0c1.1,0,1.8-.2,2.3-.6s.8-1,.8-1.8,0-.6-.2-.9c0-.3-.3-.5-.4-.7s-.4-.3-.7-.5c-.3-.2-.6-.3-.8-.4-.2,0-.5-.2-.9-.3s-.7-.2-.9-.3c-1.4-.5-2.5-1-3.2-1.7s-1.1-1.6-1.1-2.8.5-2.3,1.3-3S45.9,0,47.3,0h0C49,0,50.2.4,51.2,1.2c.9.8,1.4,2.1,1.4,3.8h-2.1c0-1.2-.2-2-.7-2.4s-1.3-.7-2.3-.7h0c-1.8,0-2.6.7-2.6,2.2s0,.7.2.9c0,.3.3.5.4.7.2.2.4.3.8.5s.7.3.8.4c.2,0,.5.2,1,.3.8.2,1.4.5,1.9.7s1,.5,1.5.8c.5.4.9.8,1.2,1.4.3.5.4,1.2.4,1.9,0,1.4-.5,2.5-1.4,3.2s-2.2,1.1-3.8,1.1h0c-1.7,0-3-.4-4-1.2s-1.4-2.1-1.4-3.8h2.1-.1Z"/>
  <path class="st0" d="M52.9.2h10.8v2h-4.3v13.6h-2.1V2.2h-4.4V.2Z"/>
  <path class="st0" d="M65.1,15.8V.2h5.2c3.3,0,4.9,1.6,4.9,4.8h0c0,2.9-1.2,4.4-3.7,4.8v.2l3.6,5.8h-2.4l-3.6-5.9h-1.9v5.9s-2.1,0-2.1,0ZM67.2,7.9h3.1c1,0,1.8-.2,2.2-.6.4-.4.6-1.2.6-2.2h0c0-1.1-.2-1.9-.6-2.3-.4-.4-1.1-.6-2.2-.6h-3.1v5.7Z"/>
  <path class="st0" d="M77.1,15.8V.2h2.1v15.6h-2.1Z"/>
  <path class="st0" d="M80.8,15.8L85.1.2h3.2l4.2,15.6h-2.2l-1.2-4.6h-4.8l-1.2,4.6s-2.3,0-2.3,0ZM88.5,9.2l-1.8-7h-.2l-1.8,7h3.8Z"/>
  <path class="st0" d="M96.1,13.8h6.5v2h-8.5V.2h2.1v13.6h-.1Z"/>
  <path class="st0" d="M108.6.2h5c1.6,0,2.9.5,3.8,1.4.9.9,1.4,2.4,1.4,4.2v4.3c0,1.9-.5,3.3-1.4,4.2s-2.2,1.4-3.8,1.4h-5V.2ZM110.7,13.8h2.9c1.1,0,1.9-.3,2.4-.8s.7-1.5.7-2.9v-4.3c0-1.4-.2-2.3-.7-2.9-.5-.5-1.3-.8-2.4-.8h-2.9v11.7Z"/>
  <path class="st0" d="M121.2.2h9.4v2h-7.3v4.8h5.4v2h-5.4v4.9h7.3v2h-9.4V.2Z"/>
  <path class="st0" d="M133.4,11c0,1.2.3,2,.8,2.4.5.5,1.4.7,2.5.7h.1c1.1,0,1.8-.2,2.3-.6s.8-1,.8-1.8,0-.6-.2-.9c-.1-.3-.3-.5-.4-.7-.1-.2-.4-.3-.7-.5s-.6-.3-.8-.4-.5-.2-.9-.3-.7-.2-.9-.3c-1.4-.5-2.5-1-3.2-1.7s-1.1-1.6-1.1-2.8.5-2.3,1.3-3C133.9.4,135,0,136.4,0h.1C138.1,0,139.3.4,140.3,1.2c.9.8,1.4,2.1,1.4,3.8h-2.1c0-1.2-.2-2-.7-2.4s-1.3-.7-2.3-.7h-.1c-1.8,0-2.6.7-2.6,2.2s0,.7.2.9c.1.3.3.5.4.7.2.2.4.3.8.5s.7.3.8.4c.2,0,.5.2,1,.3.8.2,1.4.5,1.9.7s1,.5,1.5.8c.5.4.9.8,1.2,1.4.3.5.4,1.2.4,1.9,0,1.4-.5,2.5-1.4,3.2s-2.2,1.1-3.8,1.1h-.1c-1.7,0-3-.4-4-1.2s-1.4-2.1-1.4-3.8h2.1-.1Z"/>
  <path class="st0" d="M143.9,15.8V.2h2.1v15.6h-2.1Z"/>
  <path class="st0" d="M148.3,10.4v-4.8c0-1.9.5-3.3,1.4-4.2C150.6.5,151.9,0,153.5,0h.1C155.2,0,156.5.5,157.4,1.4c.9.9,1.4,2.4,1.4,4.2h-2.1c0-1.4-.2-2.3-.7-2.9-.5-.6-1.3-.8-2.3-.8h-.1c-1.1,0-1.9.3-2.4.8-.5.6-.7,1.5-.7,2.9v4.8c0,1.4.2,2.3.7,2.9.5.6,1.2.8,2.3.8h.1c1.1,0,1.8-.3,2.4-.9s.8-1.5.8-2.9v-.3h-2.7v-2h4.8v7.7h-2v-1.9h-.3c-.5,1.4-1.7,2.1-3.5,2.1h-.1c-1.5,0-2.6-.5-3.5-1.4-.8-.9-1.3-2.4-1.3-4.2h.1Z"/>
  <path class="st0" d="M164.3.2l4.8,12.4h.2V.2h2v15.6h-3l-4.8-12.4h-.2v12.4h-2V.2h3Z"/>
  <path class="st0" d="M179.8,11c0,1.2.3,2,.8,2.4.5.5,1.4.7,2.5.7h.1c1.1,0,1.8-.2,2.3-.6s.8-1,.8-1.8,0-.6-.2-.9c-.1-.3-.3-.5-.4-.7-.1-.2-.4-.3-.7-.5s-.6-.3-.8-.4-.5-.2-.9-.3-.7-.2-.9-.3c-1.4-.5-2.5-1-3.2-1.7s-1.1-1.6-1.1-2.8.5-2.3,1.3-3C180.3.4,181.4,0,182.8,0h.1C184.5,0,185.7.4,186.7,1.2c.9.8,1.4,2.1,1.4,3.8h-2.1c0-1.2-.2-2-.7-2.4s-1.3-.7-2.3-.7h-.1c-1.8,0-2.6.7-2.6,2.2s0,.7.2.9c.1.3.3.5.4.7.2.2.4.3.8.5s.7.3.8.4c.2,0,.5.2,1,.3.8.2,1.4.5,1.9.7s1,.5,1.5.8c.5.4.9.8,1.2,1.4.3.5.4,1.2.4,1.9,0,1.4-.5,2.5-1.4,3.2s-2.2,1.1-3.8,1.1h-.1c-1.7,0-3-.4-4-1.2s-1.4-2.1-1.4-3.8h2.1-.1Z"/>
  <path class="st0" d="M188.3.2h10.8v2h-4.3v13.6h-2.1V2.2h-4.4V.2Z"/>
  <path class="st0" d="M200.3.2h2.1v10.5c0,1.2.2,2.1.7,2.6s1.2.8,2.3.8h.1c1,0,1.8-.3,2.2-.8.5-.5.7-1.4.7-2.6V.2h2.1v10.5c0,1.7-.4,3.1-1.3,4-.9.9-2.1,1.3-3.7,1.3h-.1c-1.6,0-2.8-.4-3.7-1.3-.9-.9-1.3-2.2-1.3-4V.2h-.1Z"/>
  <path class="st0" d="M213.2.2h5c1.6,0,2.9.5,3.8,1.4.9.9,1.4,2.4,1.4,4.2v4.3c0,1.9-.5,3.3-1.4,4.2s-2.2,1.4-3.8,1.4h-5V.2ZM215.3,13.8h2.9c1.1,0,1.9-.3,2.4-.8s.7-1.5.7-2.9v-4.3c0-1.4-.2-2.3-.7-2.9-.5-.5-1.3-.8-2.4-.8h-2.9v11.7Z"/>
  <path class="st0" d="M225.8,15.8V.2h2.1v15.6h-2.1Z"/>
  <path class="st0" d="M230.2,5.6c0-1.9.5-3.3,1.4-4.2S233.8,0,235.4,0h.1C237.1,0,238.4.5,239.3,1.4c.9.9,1.4,2.4,1.4,4.2v4.8c0,1.9-.5,3.3-1.4,4.2s-2.2,1.4-3.8,1.4h-.1c-1.6,0-2.9-.5-3.8-1.4s-1.4-2.4-1.4-4.2c0,0,0-4.8,0-4.8ZM233.1,13.3c.5.6,1.3.8,2.3.8h.1c1.1,0,1.9-.3,2.4-.8s.8-1.5.8-2.9v-4.8c0-1.4-.2-2.3-.7-2.9-.5-.6-1.3-.8-2.4-.8h-.1c-1.1,0-1.8.3-2.3.8-.5.6-.7,1.5-.7,2.9v4.8c0,1.4.3,2.3.8,2.9h-.2Z"/>
</svg>