<?xml version="1.0" encoding="UTF-8"?>
<svg xmlns="http://www.w3.org/2000/svg" version="1.1" viewBox="0 0 50.3 50.3">
  <!-- Generator: Adobe Illustrator 28.6.0, SVG Export Plug-In . SVG Version: 1.2.0 Build 709)  -->
  <g>
    <g id="Layer_1">
      <g>
        <path d="M2.5,32.4v-14.5h2.4l5.1,12.2h.2v-12.2h1.5v14.5h-2.3l-5.1-12.2h-.2v12.2h-1.5Z"/>
        <path d="M14.1,32.4v-2.2h2.2v2.2h-2.2Z"/>
        <path d="M18.8,32.4v-14.5h2.2l2.9,7h.2l2.9-7h2.2v14.5h-1.5v-12h-.2l-3,6.9h-.8l-3-6.9h-.2v12h-1.5Z"/>
        <path d="M31.6,26.9v-1.5h5v1.5h-5Z"/>
        <path d="M44,17.9c2.9,0,4.3,1.4,4.3,4.3h0c0,3-1.4,4.4-4.3,4.4h-3.4v5.7h-1.6v-14.5h5ZM46.8,22.3h0c0-1.1-.2-1.9-.6-2.3-.4-.4-1.1-.6-2.1-.6h-3.4v5.8h3.4c1,0,1.7-.2,2.1-.6.4-.4.6-1.2.6-2.2Z"/>
      </g>
    </g>
  </g>
</svg>