<?xml version="1.0" encoding="UTF-8"?>
<svg id="Layer_1" data-name="Layer 1" xmlns="http://www.w3.org/2000/svg" version="1.1" viewBox="0 0 49.3 14.5">
  <defs>
    <style>
      .cls-1 {
        fill: #fff;
        stroke-width: 0px;
      }
    </style>
  </defs>
  <path class="cls-1" d="M1.6,0l6.1,13.3h.1V0h1v14.5h-1.6L1.1,1.2h-.1v13.3H0V0h1.6Z"/>
  <path class="cls-1" d="M14.6,0l3.1,7.6h.1L21,0h1.7v14.5h-1V1.2h-.1l-3.5,8.2h-.6L14,1.2h-.1v13.3h-1V0h1.7Z"/>
  <path class="cls-1" d="M31.6,0c2.7,0,4.1,1.4,4.1,4.2h0c0,2.9-1.4,4.3-4.1,4.3h-3.9v6h-1V0h4.9ZM27.7.9v6.6h3.9c1,0,1.8-.2,2.3-.7.5-.5.8-1.3.8-2.6h0c0-1.3-.3-2.1-.8-2.6-.5-.5-1.3-.7-2.3-.7h-3.9Z"/>
  <path class="cls-1" d="M35.3,14.5v-1.7h1.7v1.7h-1.7Z"/>
  <path class="cls-1" d="M44.7,0c3.1,0,4.6,1.7,4.6,5.1v4.3c0,3.4-1.5,5.1-4.6,5.1h-4.5V0h4.5ZM41.2.9v12.6h3.5c1.2,0,2.1-.3,2.7-1,.6-.7.9-1.7.9-3.2v-4.3c0-1.5-.3-2.5-.9-3.2-.6-.7-1.5-1-2.7-1h-3.5Z"/>
</svg>