<?xml version="1.0" encoding="UTF-8"?>
<svg xmlns="http://www.w3.org/2000/svg" version="1.1" viewBox="0 0 2112.4 181.8">
  <defs>
    <style>
      .cls-1 {
        stroke: #fff;
        stroke-miterlimit: 10;
      }

      .cls-1, .cls-2 {
        fill: #222;
      }
    </style>
  </defs>
  <!-- Generator: Adobe Illustrator 28.7.1, SVG Export Plug-In . SVG Version: 1.2.0 Build 142)  -->
  <g>
    <g id="Layer_1">
      <g id="Layer_1-2" data-name="Layer_1">
        <g id="Layer_1-2">
          <g>
            <path class="cls-1" d="M0,2.6h47.7l35.7,121h3.1V2.6h33.2v176.6h-47.7L36.3,58.3h-3.1v121H0V2.6Z"/>
            <path class="cls-1" d="M136.2,179.2v-40.1h40.1v40.1h-40.1,0Z"/>
            <path class="cls-1" d="M230.5,2.6l30.8,70.2h3.1L295.3,2.6h37.6v176.6h-33.7v-113.4h-3.1l-24.3,53.4h-17.9l-24.1-53.4h-3.1v113.4h-33.7V2.6h37.6,0Z"/>
            <path class="cls-1" d="M350.2,65.8c0-20.7,5.6-36.9,16.8-48.4C378.2,5.8,393.1,0,411.5,0h1.6C431.4,0,446.2,5.7,457.5,17.2c11.3,11.5,17,27.7,17,48.6v50.2c0,20.9-5.7,37.1-17,48.6s-26.1,17.2-44.4,17.2h-1.6c-18.5,0-33.3-5.8-44.5-17.4-11.2-11.6-16.8-27.7-16.8-48.4v-50.2ZM390.8,143.2c4,5,10.9,7.5,20.7,7.5h1.6c9.8,0,16.8-2.5,20.8-7.5,4.1-5,6.1-14.1,6.1-27.2v-50.2c0-13.1-2-22.2-6.1-27.2s-11-7.5-20.8-7.5h-1.6c-9.8,0-16.8,2.5-20.8,7.5-4.1,5-6.1,14.1-6.1,27.2v50.2c0,13.1,2.1,22.2,6.2,27.2h0Z"/>
            <path class="cls-1" d="M551.7,2.6c40.4,0,60.6,19,60.6,57v1c0,29.7-12.3,47.7-37,54.1v3.1l37,61.4h-37.8l-36.8-61.6h-11.4v61.6h-34.4V2.6h59.8ZM526.3,85.7h25.4c11,0,18.3-1.9,21.6-5.6,3.4-3.7,5-10.2,5-19.6v-1c0-9.5-1.7-16.1-5-19.7s-10.6-5.4-21.6-5.4h-25.4v51.3Z"/>
            <path class="cls-1" d="M626.3,2.6h110.9v31.9h-76.4v39.9h56.2v31.9h-56.2v41.2h76.4v31.9h-110.9V2.6Z"/>
            <path class="cls-1" d="M751.1,2.6h47.7l35.7,121h3.1V2.6h33.2v176.6h-47.7l-35.7-121h-3.1v121h-33.2V2.6Z"/>
            <path class="cls-1" d="M888.1,65.8c0-20.7,5.6-36.9,16.8-48.4C916.2,5.8,931,0,949.5,0h1.6C969.4,0,984.2,5.7,995.5,17.2c11.3,11.5,17,27.7,17,48.6v50.2c0,20.9-5.7,37.1-17,48.6s-26.1,17.2-44.4,17.2h-1.6c-18.5,0-33.3-5.8-44.5-17.4-11.2-11.6-16.8-27.7-16.8-48.4v-50.2h0ZM928.8,143.2c4,5,10.9,7.5,20.7,7.5h1.6c9.8,0,16.8-2.5,20.8-7.5,4.1-5,6.1-14.1,6.1-27.2v-50.2c0-13.1-2-22.2-6.1-27.2s-11-7.5-20.8-7.5h-1.6c-9.8,0-16.8,2.5-20.8,7.5-4.1,5-6.1,14.1-6.1,27.2v50.2c0,13.1,2.1,22.2,6.2,27.2h0Z"/>
            <path class="cls-1" d="M1072.8,117.2v-31.9h68.6v31.9h-68.6Z"/>
          </g>
        </g>
        <g id="Layer_1-3">
          <g>
            <path class="cls-2" d="M1265.4,2.6c40.4,0,60.6,19,60.6,57v1c0,38-20.2,57-60.6,57h-29.3v61.6h-34.4V2.6h63.7ZM1236.1,34.5v51.3h29.3c11,0,18.3-1.9,21.6-5.6,3.4-3.7,5.1-10.2,5.1-19.6v-1c0-9.5-1.7-16.1-5.1-19.7s-10.6-5.4-21.6-5.4c0,0-29.3,0-29.3,0Z"/>
            <path class="cls-2" d="M1334.8,2.6h110.9v31.9h-76.4v39.9h56.2v31.9h-56.2v41.2h76.4v31.9h-110.9V2.6h0Z"/>
            <path class="cls-2" d="M1459.7,2.6h59.1c18.3,0,33.1,5.7,44.4,17.2,11.3,11.5,17,27.7,17,48.6v45.1c0,20.9-5.7,37.1-17,48.6s-26.1,17.2-44.4,17.2h-59.1V2.6ZM1494.1,147.4h24.6c9.8,0,16.8-2.4,20.8-7.1,4.1-4.7,6.1-13.7,6.1-26.8v-45.1c0-13.1-2-22.1-6.1-26.8s-11-7.1-20.8-7.1h-24.6v112.9Z"/>
            <path class="cls-2" d="M1657.3,2.6c40.4,0,60.6,19,60.6,57v1c0,29.7-12.3,47.7-37,54.1v3.1l37,61.4h-37.8l-36.8-61.6h-11.4v61.6h-34.4V2.6h59.8ZM1631.9,85.7h25.4c11,0,18.3-1.9,21.6-5.6,3.4-3.7,5.1-10.2,5.1-19.6v-1c0-9.5-1.7-16.1-5.1-19.7s-10.6-5.4-21.6-5.4h-25.4v51.3Z"/>
            <path class="cls-2" d="M1761.9,2.6h51.3l43,176.6h-35.5l-10.4-47.1h-45.8l-10.4,47.1h-36.8L1761.9,2.6ZM1803.3,100.2l-14.2-65.8h-3.1l-14.5,65.8h31.9-.1Z"/>
            <path class="cls-2" d="M1856.4,179.2v-27.5l74.6-114.2v-3.1h-70.4V2.6h111.4v28.2l-74.6,113.4v3.1h76.1v31.9h-117.1Z"/>
            <path class="cls-2" d="M2018.1,2.6h51.3l43,176.6h-35.5l-10.4-47.1h-45.8l-10.4,47.1h-36.8L2018.1,2.6ZM2059.5,100.2l-14.2-65.8h-3.1l-14.5,65.8h31.9-.1Z"/>
          </g>
        </g>
      </g>
    </g>
  </g>
</svg>