<?xml version="1.0" encoding="UTF-8"?>
<svg id="Layer_1" data-name="Layer 1" xmlns="http://www.w3.org/2000/svg" version="1.1" viewBox="0 0 283.5 218.4">
  <defs>
    <style>
      .cls-1 {
        fill: #222;
        stroke-width: 0px;
      }
    </style>
  </defs>
  <path class="cls-1" d="M262.5,21.3C248.5,7.1,230.2,0,207.6,0h-73v17.2C122,5.7,103.5,0,78.8,0H0v218.4h42.6v-76.2h36.2c24.7,0,43.2-5.7,55.7-17.2v93.4h73c22.6,0,40.9-7.1,54.9-21.3,14-14.2,21-34.2,21-60.1v-55.7c0-25.8-7-45.9-21-60.1ZM111.8,71.7c0,11.5-2.1,19.6-6.2,24.2-4.2,4.6-13.1,6.9-26.7,6.9h-36.2v-63.4h36.2c13.7,0,22.6,2.2,26.7,6.7,4.2,4.5,6.2,12.6,6.2,24.3v1.3ZM279.2,137.1c0,24.6-6.6,43.8-19.8,57.1-13.1,13.3-30.5,20-51.9,20h-68.8v-93.6c10-11.6,14.9-27.9,14.9-48.9v-1.3c0-21-5-37.2-14.9-48.9V4.3h68.8c21.3,0,38.8,6.7,51.9,20,13.1,13.3,19.8,32.5,19.8,57.1v55.7Z"/>
  <path class="cls-1" d="M207.6,35.1h-34.7v148.2h34.7c13.4,0,23.2-3.5,29-10.3,5.8-6.7,8.5-18.5,8.5-35.9v-55.7c0-17.4-2.8-29.2-8.6-35.9-5.8-6.8-15.6-10.3-29-10.3ZM240.9,137.1c0,16.2-2.5,27.3-7.5,33.2-5,5.9-13.6,8.8-25.8,8.8h-30.4V39.4h30.4c12.2,0,20.8,2.9,25.8,8.8,5,5.9,7.5,16.9,7.5,33.1v55.7Z"/>
  <rect class="cls-1" x="67.7" y="176.7" width="41.8" height="41.8"/>
</svg>