<?xml version="1.0" encoding="UTF-8"?>
<svg id="Layer_1" data-name="Layer 1" xmlns="http://www.w3.org/2000/svg" version="1.1" viewBox="0 0 283.5 16">
  <defs>
    <style>
      .cls-1 {
        fill: #222;
        stroke-width: 0px;
      }
    </style>
  </defs>
  <path class="cls-1" d="M42.7,15.8V.2h2.1v15.6h-2.1Z"/>
  <path class="cls-1" d="M50.7.2l4.8,12.4h.2V.2h2v15.6h-3l-4.8-12.4h-.2v12.4h-2V.2h3Z"/>
  <path class="cls-1" d="M60.7.2h5c1.6,0,2.9.5,3.8,1.4s1.4,2.4,1.4,4.2v4.3c0,1.9-.5,3.3-1.4,4.2-.9.9-2.2,1.4-3.8,1.4h-5V.2ZM62.8,13.8h2.9c1.1,0,1.9-.3,2.4-.8.5-.5.7-1.5.7-2.9v-4.3c0-1.4-.2-2.3-.7-2.9-.5-.5-1.3-.8-2.4-.8h-2.9v11.7Z"/>
  <path class="cls-1" d="M73.1.2h2.1v10.5c0,1.2.2,2.1.7,2.6.5.5,1.2.8,2.3.8h.1c1,0,1.8-.3,2.2-.8.5-.5.7-1.4.7-2.6V.2h2.1v10.5c0,1.7-.4,3.1-1.3,4-.9.9-2.1,1.3-3.7,1.3h-.1c-1.6,0-2.8-.4-3.7-1.3-.9-.9-1.3-2.2-1.3-4V.2Z"/>
  <path class="cls-1" d="M87,11c0,1.2.3,2,.8,2.4.5.5,1.4.7,2.5.7h.1c1.1,0,1.8-.2,2.3-.6s.8-1,.8-1.8,0-.6-.2-.9c-.1-.3-.3-.5-.4-.7-.1-.2-.4-.3-.7-.5-.3-.2-.6-.3-.8-.4-.2,0-.5-.2-.9-.3-.4-.1-.7-.2-.9-.3-1.4-.5-2.5-1-3.2-1.7-.7-.7-1.1-1.6-1.1-2.8,0-1.3.5-2.3,1.3-3s2-1.1,3.4-1.1h.1c1.6,0,2.8.4,3.8,1.2.9.8,1.4,2.1,1.4,3.8h-2.1c0-1.2-.2-2-.7-2.4s-1.3-.7-2.3-.7h-.1c-1.8,0-2.6.7-2.6,2.2s0,.7.2.9c.1.3.3.5.4.7.2.2.4.3.8.5.4.2.7.3.8.4.2,0,.5.2,1,.3.8.2,1.4.5,1.9.7.5.2,1,.5,1.5.8.5.4.9.8,1.2,1.4.3.5.4,1.2.4,1.9,0,1.4-.5,2.5-1.4,3.2-.9.7-2.2,1.1-3.8,1.1h-.1c-1.7,0-3-.4-4-1.2-1-.8-1.4-2.1-1.4-3.8h2.1Z"/>
  <path class="cls-1" d="M95.6.2h10.8v2h-4.3v13.6h-2.1V2.2h-4.4V.2Z"/>
  <path class="cls-1" d="M107.8,15.8V.2h5.2c3.3,0,4.9,1.6,4.9,4.8h0c0,2.9-1.2,4.4-3.7,4.8v.2l3.6,5.8h-2.4l-3.6-5.9h-1.9v5.9h-2.1ZM109.9,7.9h3.1c1,0,1.8-.2,2.2-.6.4-.4.6-1.2.6-2.2h0c0-1.1-.2-1.9-.6-2.3-.4-.4-1.1-.6-2.2-.6h-3.1v5.7Z"/>
  <path class="cls-1" d="M119.8,15.8V.2h2.1v15.6h-2.1Z"/>
  <path class="cls-1" d="M123.5,15.8L127.8.2h3.2l4.2,15.6h-2.2l-1.2-4.6h-4.8l-1.2,4.6h-2.3ZM131.2,9.2l-1.8-7h-.2l-1.8,7h3.8Z"/>
  <path class="cls-1" d="M138.8,13.8h6.5v2h-8.5V.2h2.1v13.6Z"/>
  <path class="cls-1" d="M151.3.2h5c1.6,0,2.9.5,3.8,1.4s1.4,2.4,1.4,4.2v4.3c0,1.9-.5,3.3-1.4,4.2-.9.9-2.2,1.4-3.8,1.4h-5V.2ZM153.4,13.8h2.9c1.1,0,1.9-.3,2.4-.8.5-.5.7-1.5.7-2.9v-4.3c0-1.4-.2-2.3-.7-2.9-.5-.5-1.3-.8-2.4-.8h-2.9v11.7Z"/>
  <path class="cls-1" d="M163.9.2h9.4v2h-7.3v4.8h5.4v2h-5.4v4.9h7.3v2h-9.4V.2Z"/>
  <path class="cls-1" d="M176.1,11c0,1.2.3,2,.8,2.4.5.5,1.4.7,2.5.7h.1c1.1,0,1.8-.2,2.3-.6s.8-1,.8-1.8,0-.6-.2-.9c-.1-.3-.3-.5-.4-.7-.1-.2-.4-.3-.7-.5-.3-.2-.6-.3-.8-.4s-.5-.2-.9-.3-.7-.2-.9-.3c-1.4-.5-2.5-1-3.2-1.7-.7-.7-1.1-1.6-1.1-2.8,0-1.3.5-2.3,1.3-3,.9-.7,2-1.1,3.4-1.1h.1c1.6,0,2.8.4,3.8,1.2.9.8,1.4,2.1,1.4,3.8h-2.1c0-1.2-.2-2-.7-2.4s-1.3-.7-2.3-.7h-.1c-1.8,0-2.6.7-2.6,2.2s0,.7.2.9c.1.3.3.5.4.7.2.2.4.3.8.5s.7.3.8.4c.2,0,.5.2,1,.3.8.2,1.4.5,1.9.7.5.2,1,.5,1.5.8.5.4.9.8,1.2,1.4.3.5.4,1.2.4,1.9,0,1.4-.5,2.5-1.4,3.2-.9.7-2.2,1.1-3.8,1.1h-.1c-1.7,0-3-.4-4-1.2s-1.4-2.1-1.4-3.8h2.1Z"/>
  <path class="cls-1" d="M186.6,15.8V.2h2.1v15.6h-2.1Z"/>
  <path class="cls-1" d="M191,10.4v-4.8c0-1.9.5-3.3,1.4-4.2.9-.9,2.2-1.4,3.8-1.4h.1c1.6,0,2.9.5,3.8,1.4.9.9,1.4,2.4,1.4,4.2h-2.1c0-1.4-.2-2.3-.7-2.9-.5-.6-1.3-.8-2.3-.8h-.1c-1.1,0-1.9.3-2.4.8-.5.6-.7,1.5-.7,2.9v4.8c0,1.4.2,2.3.7,2.9.5.6,1.2.8,2.3.8h.1c1.1,0,1.8-.3,2.4-.9s.8-1.5.8-2.9v-.3h-2.7v-2h4.8v7.7h-2v-1.9h-.3c-.5,1.4-1.7,2.1-3.5,2.1h-.1c-1.5,0-2.6-.5-3.5-1.4-.8-.9-1.3-2.4-1.3-4.2Z"/>
  <path class="cls-1" d="M207,.2l4.8,12.4h.2V.2h2v15.6h-3l-4.8-12.4h-.2v12.4h-2V.2h3Z"/>
  <path class="cls-1" d="M222.5,11c0,1.2.3,2,.8,2.4.5.5,1.4.7,2.5.7h.1c1.1,0,1.8-.2,2.3-.6s.8-1,.8-1.8,0-.6-.2-.9c-.1-.3-.3-.5-.4-.7-.1-.2-.4-.3-.7-.5-.3-.2-.6-.3-.8-.4s-.5-.2-.9-.3-.7-.2-.9-.3c-1.4-.5-2.5-1-3.2-1.7-.7-.7-1.1-1.6-1.1-2.8,0-1.3.5-2.3,1.3-3,.9-.7,2-1.1,3.4-1.1h.1c1.6,0,2.8.4,3.8,1.2.9.8,1.4,2.1,1.4,3.8h-2.1c0-1.2-.2-2-.7-2.4s-1.3-.7-2.3-.7h-.1c-1.8,0-2.6.7-2.6,2.2s0,.7.2.9c.1.3.3.5.4.7.2.2.4.3.8.5s.7.3.8.4c.2,0,.5.2,1,.3.8.2,1.4.5,1.9.7.5.2,1,.5,1.5.8.5.4.9.8,1.2,1.4.3.5.4,1.2.4,1.9,0,1.4-.5,2.5-1.4,3.2-.9.7-2.2,1.1-3.8,1.1h-.1c-1.7,0-3-.4-4-1.2s-1.4-2.1-1.4-3.8h2.1Z"/>
  <path class="cls-1" d="M231,.2h10.8v2h-4.3v13.6h-2.1V2.2h-4.4V.2Z"/>
  <path class="cls-1" d="M243,.2h2.1v10.5c0,1.2.2,2.1.7,2.6.5.5,1.2.8,2.3.8h.1c1,0,1.8-.3,2.2-.8.5-.5.7-1.4.7-2.6V.2h2.1v10.5c0,1.7-.4,3.1-1.3,4-.9.9-2.1,1.3-3.7,1.3h-.1c-1.6,0-2.8-.4-3.7-1.3-.9-.9-1.3-2.2-1.3-4V.2Z"/>
  <path class="cls-1" d="M255.9.2h5c1.6,0,2.9.5,3.8,1.4s1.4,2.4,1.4,4.2v4.3c0,1.9-.5,3.3-1.4,4.2-.9.9-2.2,1.4-3.8,1.4h-5V.2ZM258,13.8h2.9c1.1,0,1.9-.3,2.4-.8.5-.5.7-1.5.7-2.9v-4.3c0-1.4-.2-2.3-.7-2.9-.5-.5-1.3-.8-2.4-.8h-2.9v11.7Z"/>
  <path class="cls-1" d="M268.5,15.8V.2h2.1v15.6h-2.1Z"/>
  <path class="cls-1" d="M272.9,5.6c0-1.9.5-3.3,1.4-4.2s2.2-1.4,3.8-1.4h.1c1.6,0,2.9.5,3.8,1.4.9.9,1.4,2.4,1.4,4.2v4.8c0,1.9-.5,3.3-1.4,4.2-.9.9-2.2,1.4-3.8,1.4h-.1c-1.6,0-2.9-.5-3.8-1.4-.9-.9-1.4-2.4-1.4-4.2v-4.8ZM275.8,13.3c.5.6,1.3.8,2.3.8h.1c1.1,0,1.9-.3,2.4-.8s.8-1.5.8-2.9v-4.8c0-1.4-.2-2.3-.7-2.9-.5-.6-1.3-.8-2.4-.8h-.1c-1.1,0-1.8.3-2.3.8-.5.6-.7,1.5-.7,2.9v4.8c0,1.4.3,2.3.8,2.9Z"/>
</svg>