<?xml version="1.0" encoding="UTF-8"?>
<svg id="Layer_1" xmlns="http://www.w3.org/2000/svg" version="1.1" viewBox="0 0 187.8 12.3">
  <!-- Generator: Adobe Illustrator 29.0.1, SVG Export Plug-In . SVG Version: 2.1.0 Build 192)  -->
  <defs>
    <style>
      .st0 {
        fill: #222;
      }
    </style>
  </defs>
  <path class="st0" d="M5.5,6.1c1.4.3,2.1,1.2,2.1,2.7h0c0,1.2-.3,2-.9,2.5-.6.6-1.4.8-2.5.8H0V.2h3.8c1.1,0,2,.3,2.5.8.6.5.9,1.3.9,2.2v.2c0,1.2-.5,2.1-1.6,2.5v.2h-.1ZM5.8,3.3c0-.7-.2-1.1-.5-1.5-.3-.3-.9-.5-1.6-.5H1.2v4.1h2.5c.8,0,1.3-.2,1.6-.5.3-.3.5-.8.5-1.5h0ZM6.3,8.8h0c0-.8-.2-1.3-.5-1.7-.3-.3-.9-.5-1.6-.5H1.3v4.3h2.9c.7,0,1.3-.2,1.6-.5.3-.3.5-.9.5-1.6Z"/>
  <path class="st0" d="M13,12.3c-1.2,0-2.1-.3-2.8-1s-1-1.7-1-3.1V.2h1.3v8.1c0,1,.2,1.8.6,2.2s1,.7,1.9.7h0c.9,0,1.5-.2,1.9-.7.4-.4.6-1.2.6-2.2V.2h1.3v8.1c0,1.4-.3,2.4-1,3.1-.7.7-1.6,1-2.8,1h0Z"/>
  <path class="st0" d="M26.3,1.4h-5.8v4.1h4.3v1.2h-4.3v4.2h5.8v1.2h-7.1V.2h7.1s0,1.2,0,1.2Z"/>
  <path class="st0" d="M27.8,12.1V.2h1.9l4.2,10.1h.2V.2h1.3v11.9h-1.9L29.3,2h-.2v10.1h-1.3Z"/>
  <path class="st0" d="M41.3,12.3c-1.2,0-2.2-.3-2.9-1.1-.7-.7-1.1-1.8-1.1-3.2v-3.7c0-1.4.4-2.5,1.1-3.2C39.1.4,40.1,0,41.3,0h0C42.5,0,43.5.4,44.2,1.1c.7.7,1.1,1.8,1.1,3.2v3.7c0,1.4-.3,2.5-1.1,3.2-.7.7-1.7,1.1-2.9,1.1h0ZM41.3,11.1h0c.9,0,1.5-.2,2-.7.4-.5.6-1.3.6-2.4v-3.8c0-1.1-.2-1.9-.6-2.3-.4-.5-1.1-.7-2-.7h0c-.9,0-1.5.2-2,.7s-.6,1.2-.6,2.3v3.8c0,1.1.2,1.9.6,2.4.4.5,1.1.7,2,.7Z"/>
  <path class="st0" d="M50.6,12.3c-1.3,0-2.3-.3-3-.9-.7-.6-1.1-1.6-1.1-2.9h1.3c0,1,.2,1.7.7,2,.5.4,1.2.6,2.1.6h0c1.8,0,2.6-.7,2.6-2s0-.5,0-.7-.2-.4-.3-.5c-.1-.2-.3-.3-.4-.4s-.3-.2-.5-.3c-.2,0-.4-.2-.6-.2s-.3,0-.6-.2c-.3,0-.5-.2-.6-.2-.5-.2-.9-.3-1.2-.5-.3,0-.7-.3-1-.6-.4-.3-.7-.6-.9-1s-.3-.9-.3-1.4c0-1,.3-1.7,1-2.3S49.3,0,50.4,0h0C51.6,0,52.5.3,53.2.9c.7.6,1.1,1.6,1.1,2.9h-1.3c0-1-.2-1.7-.7-2-.4-.4-1.1-.6-1.9-.6h0c-1.5,0-2.3.6-2.3,1.9s0,.3,0,.4,0,.3.1.4c0,0,.1.2.2.3,0,0,.2.2.2.3,0,0,.2,0,.3.2.1,0,.3,0,.3.2,0,0,.2,0,.4.2.2,0,.3,0,.4,0s.2,0,.4,0c.2,0,.3,0,.4,0,1.2.4,1.9.7,2.4,1,.9.6,1.4,1.5,1.4,2.6s-.4,1.8-1.1,2.4-1.7.8-2.9.8h0Z"/>
  <path class="st0" d="M66.1,12.1l-1-3.7h-3.9l-1,3.7h-1.4L62.1.2h2l3.3,11.9h-1.4,0ZM61.5,7.2h3.3l-1.5-5.8h-.2l-1.6,5.8Z"/>
  <path class="st0" d="M69,12.1V.2h1.3v11.9s-1.3,0-1.3,0Z"/>
  <path class="st0" d="M80.3,3.8c0,2.2-1,3.4-3,3.6h0l2.9,4.7h-1.5l-2.9-4.7h-1.8v4.7h-1.3V.2h4c2.4,0,3.6,1.2,3.6,3.6h0ZM79,3.8c0-.9-.2-1.5-.5-1.9s-.9-.5-1.8-.5h-2.7v4.8h2.7c.8,0,1.4-.2,1.8-.5.4-.3.5-1,.5-1.9h0Z"/>
  <path class="st0" d="M89,1.4h-5.8v4.1h4.3v1.2h-4.3v4.2h5.8v1.2h-7.1V.2h7.1s0,1.2,0,1.2Z"/>
  <path class="st0" d="M93.6,12.3c-1.3,0-2.3-.3-3-.9-.7-.6-1.1-1.6-1.1-2.9h1.3c0,1,.2,1.7.7,2,.5.4,1.2.6,2.1.6h0c1.8,0,2.6-.7,2.6-2s0-.5,0-.7-.2-.4-.3-.5c-.1-.2-.3-.3-.4-.4s-.3-.2-.5-.3c-.2,0-.4-.2-.6-.2s-.3,0-.6-.2c-.3,0-.5-.2-.6-.2-.5-.2-.9-.3-1.2-.5-.3,0-.7-.3-1-.6-.4-.3-.7-.6-.9-1s-.3-.9-.3-1.4c0-1,.3-1.7,1-2.3S92.3,0,93.4,0h0C94.6,0,95.5.3,96.2.9c.7.6,1.1,1.6,1.1,2.9h-1.3c0-1-.2-1.7-.7-2-.4-.4-1.1-.6-1.9-.6h0c-1.5,0-2.3.6-2.3,1.9s0,.3,0,.4,0,.3.1.4c0,0,.1.2.2.3,0,0,.2.2.2.3,0,0,.2,0,.3.2.1,0,.3,0,.3.2,0,0,.2,0,.4.2.2,0,.3,0,.4,0s.2,0,.4,0c.2,0,.3,0,.4,0,1.2.4,1.9.7,2.4,1,.9.6,1.4,1.5,1.4,2.6s-.4,1.8-1.1,2.4-1.7.8-2.9.8h0Z"/>
  <path class="st0" d="M102.3,7.6v-1.2h4.1v1.2s-4.1,0-4.1,0Z"/>
  <path class="st0" d="M118.1,12.1l-1-3.7h-3.9l-1,3.7h-1.4L114.1.2h2l3.3,11.9h-1.4,0ZM113.6,7.2h3.3l-1.5-5.8h-.2l-1.6,5.8Z"/>
  <path class="st0" d="M128.5,3.8c0,2.2-1,3.4-3,3.6h0l2.9,4.7h-1.5l-2.9-4.7h-1.8v4.7h-1.3V.2h4c2.4,0,3.6,1.2,3.6,3.6h0ZM127.2,3.8c0-.9-.2-1.5-.5-1.9s-.9-.5-1.8-.5h-2.7v4.8h2.7c.8,0,1.4-.2,1.8-.5.4-.3.5-1,.5-1.9h0Z"/>
  <path class="st0" d="M134.1,7.6v-1.2h3.5v5.8h-1.2v-1.5h-.2c-.4,1.1-1.4,1.7-2.8,1.7h0c-1.1,0-2-.3-2.7-1.1-.7-.7-1-1.8-1-3.2v-3.7c0-1.4.3-2.5,1.1-3.2s1.7-1.1,2.9-1.1h0c1.2,0,2.2.4,2.9,1.1.7.7,1.1,1.8,1.1,3.2h-1.3c0-1.1-.2-1.9-.6-2.4-.4-.5-1.1-.7-2-.7h0c-.9,0-1.5.2-2,.7s-.6,1.3-.6,2.4v3.7c0,1.1.2,1.9.6,2.4.4.5,1.1.7,1.9.7h0c.9,0,1.6-.2,2-.7s.7-1.3.7-2.4v-.5h-2.3Z"/>
  <path class="st0" d="M146.7,1.4h-5.8v4.1h4.3v1.2h-4.3v4.2h5.8v1.2h-7.1V.2h7.1s0,1.2,0,1.2Z"/>
  <path class="st0" d="M148.2,12.1V.2h1.9l4.2,10.1h.2V.2h1.3v11.9h-1.9l-4.2-10.1h-.2v10.1s-1.3,0-1.3,0Z"/>
  <path class="st0" d="M165.1.2v1.2h-3.4v10.7h-1.3V1.4h-3.4V.2h8.2-.1Z"/>
  <path class="st0" d="M166.3,12.1V.2h1.3v11.9s-1.3,0-1.3,0Z"/>
  <path class="st0" d="M170.1,12.1V.2h1.9l4.2,10.1h.2V.2h1.3v11.9h-1.9l-4.2-10.1h-.2v10.1s-1.3,0-1.3,0Z"/>
  <path class="st0" d="M186.4,12.1l-1-3.7h-3.9l-1,3.7h-1.4l3.3-11.9h2l3.3,11.9h-1.4.1ZM181.8,7.2h3.3l-1.5-5.8h-.2l-1.6,5.8h0Z"/>
</svg>